<svg width="512" height="512" viewBox="0 0 512 512" fill="none" xmlns="http://www.w3.org/2000/svg">
<path d="M148.646 80.101C164.357 79.58 182.284 79.9888 198.131 79.9888L291.342 79.9895L339.265 79.9825C349.055 79.9805 362.955 79.475 372.177 81.1175C385.26 83.4623 397.455 89.3355 407.445 98.1033C421.855 110.772 430.66 128.633 431.932 147.778C432.382 154.95 432.1 164.753 432.095 172.101L432.1 214.033L432.105 245.353C432.105 250.813 432.21 256.275 431.94 261.725C432.327 265.085 427.622 270.015 424.12 269.46C417.697 268.443 411.745 264.295 404.725 264.433C400.562 264.513 394.032 263.568 392.627 259C391.725 256.063 391.995 251.408 391.997 248.152L392.01 231.357L392.015 171.257C392.033 155.708 394.255 141.53 382.377 129.585C370.845 117.991 356.905 120.059 342.05 120.073L303.707 120.089L162.539 120.062C149.689 120.049 139.35 119.671 129.484 129.634C125.326 133.817 122.387 139.053 120.98 144.78C119.547 150.661 120.005 165.579 120.005 172.168L120.014 212.625L120.013 316.748L120.002 346.523C120 351.583 119.748 359.993 120.495 364.715C122.432 376.375 130.514 386.08 141.63 390.095C149.333 392.818 168.763 391.998 178.09 392L240.044 391.998L258.175 391.97C261.642 391.958 265.037 391.963 268.5 392.053C276.392 392.258 277.035 398.955 280.635 404.565C282.21 407.015 283.933 409.368 285.795 411.605C288.52 414.86 293.802 418.868 294.087 423.225C294.405 428.095 290.485 431.903 285.612 432.01C278.912 432.16 272.185 432.088 265.465 432.08L226.021 432.078L175.692 432.09C164.309 432.1 149.024 432.76 138.13 430.58C126.028 428.12 114.756 422.605 105.389 414.558C90.7845 402.1 81.735 384.345 80.2355 365.208C79.8522 359.818 80.0027 353.483 80.0045 347.998L80.0087 321.563L80.0095 236.981L80.002 176.963C79.998 166.97 79.4622 149.883 80.9845 140.689C83.137 127.625 88.831 115.402 97.447 105.349C110.926 89.7425 128.157 81.5798 148.646 80.101Z" fill="black"/>
<path d="M203.303 171.07C208.895 170.657 214.736 171.022 220.355 170.888C223.158 170.821 226.718 170.797 229.222 172.03C230.547 172.682 231.749 176.03 232.21 177.461C235.546 187.829 239.025 198.723 242.329 209.032L262.34 271.462L273.505 306.27C275.443 312.31 277.535 318.51 279.245 324.605C279.715 326.278 279.83 327.417 278.99 328.985C278.262 330.335 277.022 331.335 275.55 331.76C273.99 332.215 259.867 332.597 257.955 331.302C256.97 330.697 255.71 329.07 255.348 327.973C252.805 320.278 249.839 312.068 247.743 304.265C243.858 303.793 231.188 304.077 226.625 304.082L198.069 304.087C193.414 304.092 186.811 304.337 182.32 303.992C180.62 309.265 178.961 314.553 177.346 319.853C176.43 322.803 175.539 326.115 174.244 328.885C173.735 329.973 172.262 331.525 171.003 331.695C166.197 332.228 160.822 332.348 155.986 331.98C150.818 331.355 149.757 327.932 151.186 323.4C154.942 311.49 158.793 299.618 162.604 287.728L185.34 216.797L194.508 188.107C195.94 183.61 197.556 177.785 199.541 173.514C200.233 172.027 201.797 171.461 203.303 171.07ZM190.187 279.932C198.666 280.02 207.146 280.037 215.625 279.99L239.994 280.01C238.568 276.693 236.111 268.128 234.867 264.283L221.915 224.269L217.736 211.277C217.232 209.711 215.879 204.498 214.776 203.811L198.137 255.548L193.135 271.168C192.34 273.653 191.182 277.71 190.187 279.932Z" fill="black"/>
<path d="M399.225 304.528C400.693 304.373 402.763 304.413 403.575 305.843C405.403 309.058 406.798 313.11 408.155 316.543L414.728 333.158C417.883 341.135 420.318 348.31 425.643 355.193C429.468 360.125 434.188 364.295 439.555 367.483C444.135 370.215 448.61 371.865 453.525 373.798L472.808 381.405C475.205 382.348 483.41 385.063 484.845 386.88C485.495 387.72 485.75 388.805 485.54 389.848C485.328 390.948 484.648 391.968 483.675 392.498C480.323 394.325 476.155 395.755 472.573 397.15L456.488 403.473C447.638 406.96 440.813 409.103 433.295 415.295C428.805 418.99 425.005 423.448 422.07 428.468C419.293 433.215 417.325 438.6 415.3 443.72L408.158 461.813C406.868 465.09 404.85 471.945 402.085 473.868C399.805 474.428 397.778 473.755 396.82 471.588C395.495 468.59 394.34 465.358 393.13 462.305L386.515 445.59C383.045 436.833 380.558 429.33 374.415 421.913C370.233 416.908 365.13 412.75 359.385 409.668C353.075 406.205 317.67 393.76 316.168 391.308C315.658 390.473 315.53 389.218 315.815 388.295C316.24 386.92 317.395 385.978 318.61 385.305C321.697 383.593 325.6 382.51 328.908 381.218L345.638 374.59C349.66 372.99 353.975 371.365 357.843 369.455C362.183 367.318 366.188 364.56 369.733 361.268C378.753 352.78 381.235 346.14 385.645 335.005L392.865 316.748C394.223 313.313 395.623 309.428 397.318 306.155C397.788 305.245 398.32 304.96 399.225 304.528Z" fill="black"/>
<path d="M321.06 171.078C342.49 170.375 340.022 170.328 340.02 190.095L340.022 218.883L340.017 289.498C340.017 301.43 340.037 313.405 339.987 325.34C339.982 326.785 339.808 328.115 339.038 329.363C338.003 331.04 336.905 331.44 335.112 331.933C312.495 332.865 316 331.908 316.003 310.85L316.005 279.248L316.013 211.69C316.013 200.523 315.97 189.29 316.015 178.117C316.033 173.957 316.783 171.959 321.06 171.078Z" fill="black"/>
</svg>
